<svg width="24" height="24" viewBox="0 0 1395 1134" fill="none" xmlns="http://www.w3.org/2000/svg">
<g filter="url(#filter0_di_21_41)">
<ellipse cx="721" cy="735.5" rx="358.5" ry="547" transform="rotate(-90 721 735.5)" fill="url(#paint0_radial_21_41)"/>
</g>
<path d="M706.523 614.659L747.386 626.636V854.909L706.523 842.932V614.659ZM982 721.75L824.182 850.682L794.591 851.386V787.273C794.591 770.598 792.242 756.39 787.545 744.648C782.731 732.905 775.568 723.922 766.057 717.699C756.428 711.475 744.333 708.364 729.773 708.364C708.284 708.364 691.434 714.822 679.222 727.739C666.892 740.655 660.727 760.5 660.727 787.273V854.909L621.273 842.932V787.273C621.273 758.621 626.028 735.136 635.54 716.818C644.934 698.383 657.85 684.761 674.29 675.955C690.612 667.03 709.106 662.568 729.773 662.568C748.443 662.568 765.646 666.678 781.381 674.898C796.998 683 809.562 696.034 819.074 714C828.585 731.848 833.341 755.451 833.341 784.807V785.864L979.182 666.795H982V721.75ZM621.273 614.659L662.136 626.636L660.727 806.295L621.273 794.318V614.659Z" fill="url(#paint1_radial_21_41)"/>
<g filter="url(#filter1_di_21_41)">
<ellipse cx="711" cy="767.5" rx="358.5" ry="547" transform="rotate(-90 711 767.5)" fill="url(#paint2_radial_21_41)"/>
</g>
<path d="M696.523 646.659L737.386 658.636V886.909L696.523 874.932V646.659ZM972 753.75L814.182 882.682L784.591 883.386V819.273C784.591 802.598 782.242 788.39 777.545 776.648C772.731 764.905 765.568 755.922 756.057 749.699C746.428 743.475 734.333 740.364 719.773 740.364C698.284 740.364 681.434 746.822 669.222 759.739C656.892 772.655 650.727 792.5 650.727 819.273V886.909L611.273 874.932V819.273C611.273 790.621 616.028 767.136 625.54 748.818C634.934 730.383 647.85 716.761 664.29 707.955C680.612 699.03 699.106 694.568 719.773 694.568C738.443 694.568 755.646 698.678 771.381 706.898C786.998 715 799.562 728.034 809.074 746C818.585 763.848 823.341 787.451 823.341 816.807V817.864L969.182 698.795H972V753.75ZM611.273 646.659L652.136 658.636L650.727 838.295L611.273 826.318V646.659Z" fill="url(#paint3_radial_21_41)"/>
<g filter="url(#filter2_di_21_41)">
<ellipse cx="721" cy="735.5" rx="358.5" ry="547" transform="rotate(-90 721 735.5)" fill="url(#paint4_radial_21_41)"/>
</g>
<path d="M706.523 614.659L747.386 626.636V854.909L706.523 842.932V614.659ZM982 721.75L824.182 850.682L794.591 851.386V787.273C794.591 770.598 792.242 756.39 787.545 744.648C782.731 732.905 775.568 723.922 766.057 717.699C756.428 711.475 744.333 708.364 729.773 708.364C708.284 708.364 691.434 714.822 679.222 727.739C666.892 740.655 660.727 760.5 660.727 787.273V854.909L621.273 842.932V787.273C621.273 758.621 626.028 735.136 635.54 716.818C644.934 698.383 657.85 684.761 674.29 675.955C690.612 667.03 709.106 662.568 729.773 662.568C748.443 662.568 765.646 666.678 781.381 674.898C796.998 683 809.562 696.034 819.074 714C828.585 731.848 833.341 755.451 833.341 784.807V785.864L979.182 666.795H982V721.75ZM621.273 614.659L662.136 626.636L660.727 806.295L621.273 794.318V614.659Z" fill="url(#paint5_radial_21_41)"/>
<g filter="url(#filter3_di_21_41)">
<ellipse cx="755.143" cy="530.716" rx="358.5" ry="547" transform="rotate(-69 755.143 530.716)" fill="url(#paint6_radial_21_41)"/>
</g>
<path d="M784.933 412.713L818.79 438.539L736.985 651.65L703.128 625.824L784.933 412.713ZM1003.74 611.413L810.194 675.224L782.316 665.278L805.293 605.423C811.268 589.856 814.168 575.75 813.991 563.104C813.704 550.416 810.236 539.463 803.587 530.244C796.828 520.983 786.652 513.744 773.058 508.526C752.997 500.825 734.951 500.816 718.921 508.498C702.782 516.138 689.915 532.456 680.32 557.45L656.082 620.594L623.54 595.273L643.486 543.311C653.754 516.562 666.61 496.342 682.054 482.649C697.431 468.804 714.371 460.717 732.875 458.386C751.311 455.904 770.176 458.366 789.47 465.772C806.9 472.463 821.487 482.465 833.232 495.777C844.908 508.938 851.967 525.609 854.408 545.79C856.891 565.862 852.873 589.601 842.353 617.007L841.974 617.994L1020.8 559.099L1023.43 560.109L1003.74 611.413ZM705.345 382.162L739.203 407.988L673.503 575.209L640.961 549.888L705.345 382.162Z" fill="url(#paint7_radial_21_41)"/>
<g filter="url(#filter4_di_21_41)">
<ellipse cx="362.5" cy="547" rx="358.5" ry="547" fill="url(#paint8_radial_21_41)"/>
</g>
<path d="M483.341 532.523L471.364 573.386H243.091L255.068 532.523H483.341ZM376.25 808L247.318 650.182L246.614 620.591H310.727C327.402 620.591 341.61 618.242 353.352 613.545C365.095 608.731 374.078 601.568 380.301 592.057C386.525 582.428 389.636 570.333 389.636 555.773C389.636 534.284 383.178 517.434 370.261 505.222C357.345 492.892 337.5 486.727 310.727 486.727H243.091L255.068 447.273H310.727C339.379 447.273 362.864 452.028 381.182 461.54C399.617 470.934 413.239 483.85 422.045 500.29C430.97 516.612 435.432 535.106 435.432 555.773C435.432 574.443 431.322 591.646 423.102 607.381C415 622.998 401.966 635.562 384 645.074C366.152 654.585 342.549 659.341 313.193 659.341H312.136L431.205 805.182V808H376.25ZM483.341 447.273L471.364 488.136L291.705 486.727L303.682 447.273H483.341Z" fill="url(#paint9_radial_21_41)"/>
<defs>
<filter id="filter0_di_21_41" x="170" y="377" width="1102" height="725" filterUnits="userSpaceOnUse" color-interpolation-filters="sRGB">
<feFlood flood-opacity="0" result="BackgroundImageFix"/>
<feColorMatrix in="SourceAlpha" type="matrix" values="0 0 0 0 0 0 0 0 0 0 0 0 0 0 0 0 0 0 127 0" result="hardAlpha"/>
<feOffset dy="4"/>
<feGaussianBlur stdDeviation="2"/>
<feComposite in2="hardAlpha" operator="out"/>
<feColorMatrix type="matrix" values="0 0 0 0 0 0 0 0 0 0 0 0 0 0 0 0 0 0 0.25 0"/>
<feBlend mode="normal" in2="BackgroundImageFix" result="effect1_dropShadow_21_41"/>
<feBlend mode="normal" in="SourceGraphic" in2="effect1_dropShadow_21_41" result="shape"/>
<feColorMatrix in="SourceAlpha" type="matrix" values="0 0 0 0 0 0 0 0 0 0 0 0 0 0 0 0 0 0 127 0" result="hardAlpha"/>
<feOffset dy="4"/>
<feGaussianBlur stdDeviation="2"/>
<feComposite in2="hardAlpha" operator="arithmetic" k2="-1" k3="1"/>
<feColorMatrix type="matrix" values="0 0 0 0 0 0 0 0 0 0 0 0 0 0 0 0 0 0 0.25 0"/>
<feBlend mode="normal" in2="shape" result="effect2_innerShadow_21_41"/>
</filter>
<filter id="filter1_di_21_41" x="160" y="409" width="1102" height="725" filterUnits="userSpaceOnUse" color-interpolation-filters="sRGB">
<feFlood flood-opacity="0" result="BackgroundImageFix"/>
<feColorMatrix in="SourceAlpha" type="matrix" values="0 0 0 0 0 0 0 0 0 0 0 0 0 0 0 0 0 0 127 0" result="hardAlpha"/>
<feOffset dy="4"/>
<feGaussianBlur stdDeviation="2"/>
<feComposite in2="hardAlpha" operator="out"/>
<feColorMatrix type="matrix" values="0 0 0 0 0 0 0 0 0 0 0 0 0 0 0 0 0 0 0.25 0"/>
<feBlend mode="normal" in2="BackgroundImageFix" result="effect1_dropShadow_21_41"/>
<feBlend mode="normal" in="SourceGraphic" in2="effect1_dropShadow_21_41" result="shape"/>
<feColorMatrix in="SourceAlpha" type="matrix" values="0 0 0 0 0 0 0 0 0 0 0 0 0 0 0 0 0 0 127 0" result="hardAlpha"/>
<feOffset dy="4"/>
<feGaussianBlur stdDeviation="2"/>
<feComposite in2="hardAlpha" operator="arithmetic" k2="-1" k3="1"/>
<feColorMatrix type="matrix" values="0 0 0 0 0 0 0 0 0 0 0 0 0 0 0 0 0 0 0.25 0"/>
<feBlend mode="normal" in2="shape" result="effect2_innerShadow_21_41"/>
</filter>
<filter id="filter2_di_21_41" x="170" y="377" width="1102" height="725" filterUnits="userSpaceOnUse" color-interpolation-filters="sRGB">
<feFlood flood-opacity="0" result="BackgroundImageFix"/>
<feColorMatrix in="SourceAlpha" type="matrix" values="0 0 0 0 0 0 0 0 0 0 0 0 0 0 0 0 0 0 127 0" result="hardAlpha"/>
<feOffset dy="4"/>
<feGaussianBlur stdDeviation="2"/>
<feComposite in2="hardAlpha" operator="out"/>
<feColorMatrix type="matrix" values="0 0 0 0 0 0 0 0 0 0 0 0 0 0 0 0 0 0 0.25 0"/>
<feBlend mode="normal" in2="BackgroundImageFix" result="effect1_dropShadow_21_41"/>
<feBlend mode="normal" in="SourceGraphic" in2="effect1_dropShadow_21_41" result="shape"/>
<feColorMatrix in="SourceAlpha" type="matrix" values="0 0 0 0 0 0 0 0 0 0 0 0 0 0 0 0 0 0 127 0" result="hardAlpha"/>
<feOffset dy="4"/>
<feGaussianBlur stdDeviation="2"/>
<feComposite in2="hardAlpha" operator="arithmetic" k2="-1" k3="1"/>
<feColorMatrix type="matrix" values="0 0 0 0 0 0 0 0 0 0 0 0 0 0 0 0 0 0 0.25 0"/>
<feBlend mode="normal" in2="shape" result="effect2_innerShadow_21_41"/>
</filter>
<filter id="filter3_di_21_41" x="224.437" y="142.783" width="1061.41" height="783.865" filterUnits="userSpaceOnUse" color-interpolation-filters="sRGB">
<feFlood flood-opacity="0" result="BackgroundImageFix"/>
<feColorMatrix in="SourceAlpha" type="matrix" values="0 0 0 0 0 0 0 0 0 0 0 0 0 0 0 0 0 0 127 0" result="hardAlpha"/>
<feOffset dy="4"/>
<feGaussianBlur stdDeviation="2"/>
<feComposite in2="hardAlpha" operator="out"/>
<feColorMatrix type="matrix" values="0 0 0 0 0 0 0 0 0 0 0 0 0 0 0 0 0 0 0.25 0"/>
<feBlend mode="normal" in2="BackgroundImageFix" result="effect1_dropShadow_21_41"/>
<feBlend mode="normal" in="SourceGraphic" in2="effect1_dropShadow_21_41" result="shape"/>
<feColorMatrix in="SourceAlpha" type="matrix" values="0 0 0 0 0 0 0 0 0 0 0 0 0 0 0 0 0 0 127 0" result="hardAlpha"/>
<feOffset dy="4"/>
<feGaussianBlur stdDeviation="2"/>
<feComposite in2="hardAlpha" operator="arithmetic" k2="-1" k3="1"/>
<feColorMatrix type="matrix" values="0 0 0 0 0 0 0 0 0 0 0 0 0 0 0 0 0 0 0.25 0"/>
<feBlend mode="normal" in2="shape" result="effect2_innerShadow_21_41"/>
</filter>
<filter id="filter4_di_21_41" x="0" y="0" width="725" height="1102" filterUnits="userSpaceOnUse" color-interpolation-filters="sRGB">
<feFlood flood-opacity="0" result="BackgroundImageFix"/>
<feColorMatrix in="SourceAlpha" type="matrix" values="0 0 0 0 0 0 0 0 0 0 0 0 0 0 0 0 0 0 127 0" result="hardAlpha"/>
<feOffset dy="4"/>
<feGaussianBlur stdDeviation="2"/>
<feComposite in2="hardAlpha" operator="out"/>
<feColorMatrix type="matrix" values="0 0 0 0 0 0 0 0 0 0 0 0 0 0 0 0 0 0 0.25 0"/>
<feBlend mode="normal" in2="BackgroundImageFix" result="effect1_dropShadow_21_41"/>
<feBlend mode="normal" in="SourceGraphic" in2="effect1_dropShadow_21_41" result="shape"/>
<feColorMatrix in="SourceAlpha" type="matrix" values="0 0 0 0 0 0 0 0 0 0 0 0 0 0 0 0 0 0 127 0" result="hardAlpha"/>
<feOffset dy="4"/>
<feGaussianBlur stdDeviation="2"/>
<feComposite in2="hardAlpha" operator="arithmetic" k2="-1" k3="1"/>
<feColorMatrix type="matrix" values="0 0 0 0 0 0 0 0 0 0 0 0 0 0 0 0 0 0 0.25 0"/>
<feBlend mode="normal" in2="shape" result="effect2_innerShadow_21_41"/>
</filter>
<radialGradient id="paint0_radial_21_41" cx="0" cy="0" r="1" gradientUnits="userSpaceOnUse" gradientTransform="translate(721 735.5) rotate(90) scale(547 358.5)">
<stop stop-color="#FAFF00"/>
<stop offset="0.865" stop-color="#EFF400"/>
<stop offset="0.93" stop-color="#F2F700"/>
<stop offset="1" stop-color="#969900"/>
</radialGradient>
<radialGradient id="paint1_radial_21_41" cx="0" cy="0" r="1" gradientUnits="userSpaceOnUse" gradientTransform="translate(802 735) scale(300 134)">
<stop stop-color="#FAFF00"/>
<stop offset="0.0001" stop-color="#F0F500"/>
<stop offset="0.055" stop-color="#E3E800"/>
<stop offset="0.9999" stop-color="#DCE100"/>
<stop offset="1" stop-color="#969900"/>
</radialGradient>
<radialGradient id="paint2_radial_21_41" cx="0" cy="0" r="1" gradientUnits="userSpaceOnUse" gradientTransform="translate(711 767.5) rotate(90) scale(547 358.5)">
<stop stop-color="#FAFF00"/>
<stop offset="0.865" stop-color="#EFF400"/>
<stop offset="0.93" stop-color="#F2F700"/>
<stop offset="1" stop-color="#969900"/>
</radialGradient>
<radialGradient id="paint3_radial_21_41" cx="0" cy="0" r="1" gradientUnits="userSpaceOnUse" gradientTransform="translate(792 767) scale(300 134)">
<stop stop-color="#FAFF00"/>
<stop offset="0.0001" stop-color="#F0F500"/>
<stop offset="0.055" stop-color="#E3E800"/>
<stop offset="0.9999" stop-color="#DCE100"/>
<stop offset="1" stop-color="#969900"/>
</radialGradient>
<radialGradient id="paint4_radial_21_41" cx="0" cy="0" r="1" gradientUnits="userSpaceOnUse" gradientTransform="translate(721 735.5) rotate(90) scale(547 358.5)">
<stop stop-color="#FAFF00"/>
<stop offset="0.865" stop-color="#EFF400"/>
<stop offset="0.93" stop-color="#F2F700"/>
<stop offset="1" stop-color="#969900"/>
</radialGradient>
<radialGradient id="paint5_radial_21_41" cx="0" cy="0" r="1" gradientUnits="userSpaceOnUse" gradientTransform="translate(802 735) scale(300 134)">
<stop stop-color="#FAFF00"/>
<stop offset="0.0001" stop-color="#F0F500"/>
<stop offset="0.055" stop-color="#E3E800"/>
<stop offset="0.9999" stop-color="#DCE100"/>
<stop offset="1" stop-color="#969900"/>
</radialGradient>
<radialGradient id="paint6_radial_21_41" cx="0" cy="0" r="1" gradientUnits="userSpaceOnUse" gradientTransform="translate(755.143 530.716) rotate(90) scale(547 358.5)">
<stop stop-color="#FAFF00"/>
<stop offset="0.865" stop-color="#EFF400"/>
<stop offset="0.93" stop-color="#F2F700"/>
<stop offset="1" stop-color="#969900"/>
</radialGradient>
<radialGradient id="paint7_radial_21_41" cx="0" cy="0" r="1" gradientUnits="userSpaceOnUse" gradientTransform="translate(830.943 559.277) rotate(21) scale(300 134)">
<stop stop-color="#FAFF00"/>
<stop offset="0.0001" stop-color="#F0F500"/>
<stop offset="0.055" stop-color="#E3E800"/>
<stop offset="0.9999" stop-color="#DCE100"/>
<stop offset="1" stop-color="#969900"/>
</radialGradient>
<radialGradient id="paint8_radial_21_41" cx="0" cy="0" r="1" gradientUnits="userSpaceOnUse" gradientTransform="translate(362.5 547) rotate(90) scale(547 358.5)">
<stop stop-color="#FAFF00"/>
<stop offset="0.865" stop-color="#EFF400"/>
<stop offset="0.93" stop-color="#F2F700"/>
<stop offset="1" stop-color="#969900"/>
</radialGradient>
<radialGradient id="paint9_radial_21_41" cx="0" cy="0" r="1" gradientUnits="userSpaceOnUse" gradientTransform="translate(363 628) rotate(90) scale(300 134)">
<stop stop-color="#FAFF00"/>
<stop offset="0.0001" stop-color="#F0F500"/>
<stop offset="0.055" stop-color="#E3E800"/>
<stop offset="0.9999" stop-color="#DCE100"/>
<stop offset="1" stop-color="#969900"/>
</radialGradient>
</defs>
</svg>
