<svg width="2309" height="2027" viewBox="0 0 2309 2027" fill="none" xmlns="http://www.w3.org/2000/svg">
<path d="M417 81C421.487 110.167 442.691 138.301 453.469 165.736C463.874 192.222 470.263 219.979 478.782 247.039C485.747 269.165 490.959 289.468 495.944 312.254C501.989 339.891 497.07 369.48 501.092 397.633C510.426 462.968 501.95 536.859 501.95 602.286C501.95 617.2 506.415 643.991 500.02 658.061C488.692 682.981 521.85 653.293 529.838 648.622C574.681 622.407 617.855 591.503 645.679 547.369C672.16 505.365 690.542 459.677 703.6 411.362C706.755 399.688 707.964 381.97 714.112 372.749C721.168 362.165 718.111 397.98 722.049 410.075C726.729 424.451 733.415 437.912 737.494 452.55C747.899 489.885 760.238 523.459 776.323 558.309C792.511 593.384 795.415 619.201 795.415 658.276C795.415 672.439 790.523 695.146 812.577 683.804C846.099 666.564 877.687 628.011 899.672 597.781C927.7 559.243 952.159 523.026 963.17 476.148C973.24 433.28 976.9 389.711 976.9 345.719C976.9 318.726 983.928 281.712 973.038 256.907C957.926 222.486 948.022 184.537 928.633 152.221C921.327 140.045 910.457 128.557 904.392 115.752C902.115 110.945 895.811 90.0933 895.811 105.884C895.811 127.216 876.504 144.233 876.504 164.234C876.504 176.473 890.798 199.696 904.392 200.703C923.345 202.107 932.277 194.07 948.368 189.119C968.192 183.019 1002.54 167.666 1007.79 146.643" stroke="#B80D0D" stroke-width="160" stroke-linecap="round"/>
<path d="M1432.54 173.673C1402.89 171.929 1373.34 168.319 1343.73 165.95C1315.73 163.711 1288.11 154.798 1260.07 154.366C1242.42 154.095 1224.74 154.366 1207.08 154.366C1193.88 154.366 1182.88 160.869 1169.97 162.303C1109.5 169.022 1066.44 249.662 1041.47 296.379C1020.36 335.868 1000.78 390.367 1000.07 435.389C999.074 498.009 1030.18 567.592 1082.02 605.289C1132.55 642.041 1207.22 644.761 1266.93 644.761C1315.51 644.761 1351.89 625.072 1373.76 580.834C1389.17 549.671 1409 497.378 1376.34 469.068C1354.04 449.743 1319.4 432.385 1289.46 432.385C1276.62 432.385 1265.22 432.188 1252.77 435.389C1234.01 440.215 1224.61 449.196 1249.34 431.527C1282.4 407.913 1314.7 384.398 1348.45 361.593C1364.83 350.529 1382.39 349.325 1399.94 341.428C1423.97 330.611 1455.31 317.445 1473.3 342.287C1528.96 419.155 1509.77 539.931 1509.77 629.316C1509.77 660.207 1509.77 691.098 1509.77 721.989" stroke="#21B80D" stroke-width="160" stroke-linecap="round"/>
<path d="M309.603 1125.89C303.076 1202.91 286.589 1278.78 280.643 1356.07C275.638 1421.14 271.838 1486.71 264.125 1551.5C257.368 1608.26 256.488 1667.94 238.382 1722.26C232.795 1739.02 232.376 1759.13 232.376 1776.75C232.376 1809.73 213.069 1841.34 213.069 1875" stroke="#444543" stroke-width="40" stroke-linecap="round"/>
<path d="M749.8 1160.64C732.554 1270.28 709.868 1379.21 690.163 1488.43C676.549 1563.89 673.894 1641.06 659.272 1716.25C652.272 1752.26 641.682 1794.17 641.682 1830.38C641.682 1846.14 641.316 1871.96 634.817 1886.58C630.972 1895.23 633.845 1909.31 632.028 1918.76C626.611 1946.93 630.098 1977.59 630.098 2006.29" stroke="#444543" stroke-width="40" stroke-linecap="round"/>
<path d="M54.7524 1334.41C156.023 1332.63 253.807 1321.57 355.082 1336.77C473.767 1354.57 589.559 1389.58 708.183 1409.49C781.822 1421.84 857.263 1434.8 932.143 1434.8C974.332 1434.8 1016.52 1434.8 1058.71 1434.8" stroke="#444543" stroke-width="40" stroke-linecap="round"/>
<path d="M20 1620.15C123.21 1628.89 220.462 1665.52 322.046 1681.93C377.725 1690.92 433.995 1692.15 489.801 1699.52C583.494 1711.89 677.358 1712.82 771.682 1712.82C854.603 1712.82 937.11 1716.68 1020.1 1716.68" stroke="#444543" stroke-width="40" stroke-linecap="round"/>
<path d="M189.901 1137.48C170.611 1154.01 138.755 1157.34 116.749 1172.01C105.941 1179.22 99.4785 1187.71 91.4356 1197.54C78.6241 1213.2 78.3603 1228.94 80.9241 1247.74C85.8181 1283.63 116.245 1334.41 156.006 1334.41C195.324 1334.41 224.653 1284.38 224.653 1248.6C224.653 1201.2 206.665 1161.96 174.455 1129.75" stroke="#444543" stroke-width="40" stroke-linecap="round"/>
<path d="M433.167 1400.05C418.266 1405.47 402.735 1431.42 395.412 1444.24C388.881 1455.67 373.947 1477.67 371.6 1490.58C369.515 1502.04 367.279 1528.63 372.243 1539.06C389.671 1575.66 414.17 1589.26 452.474 1589.26C499.498 1589.26 522.65 1529.73 521.979 1490.15C521.712 1474.39 511.329 1438.72 494.949 1432.87C483.791 1428.89 464.306 1427.08 452.474 1427.08" stroke="#444543" stroke-width="40" stroke-linecap="round"/>
<path d="M803.86 1809.35C763.169 1811.9 756.968 1815.91 737.358 1848.83C720.82 1876.59 722.771 1895.37 722.771 1927.34C722.771 1955.45 728.926 1972.21 755.807 1985.26C773.642 1993.92 804.786 1988.05 819.305 1975.61C837.76 1959.79 863.195 1948.28 877.011 1927.56C887.812 1911.36 876.646 1894.01 873.579 1877.14C868.46 1848.99 823.73 1838.05 803.86 1824.8" stroke="#444543" stroke-width="40" stroke-linecap="round"/>
<path d="M143.564 1716.68C112.915 1716.68 93.8499 1723.71 68.2671 1737.92C56.9126 1744.23 55.4481 1764.57 48.7457 1775.46C41.2854 1787.58 43.9412 1830.48 53.0361 1842.18C65.0136 1857.58 71.8882 1859.55 91.4354 1859.55C104.95 1859.55 118.465 1859.55 131.98 1859.55C145.595 1859.55 166.732 1835.83 166.732 1823.08C166.732 1806.04 170.594 1791.4 170.594 1774.6C170.594 1751.71 159.297 1755.87 151.287 1739.85" stroke="#444543" stroke-width="40" stroke-linecap="round"/>
<path d="M77.9207 1434.8C107.131 1467.09 134.181 1502.37 161.155 1536.48C170.204 1547.93 183.488 1557.12 189.901 1569.95" stroke="#444543" stroke-width="40" stroke-linecap="round"/>
<path d="M193.762 1450.25C154.141 1489.87 121.099 1534.49 81.782 1573.81" stroke="#444543" stroke-width="40" stroke-linecap="round"/>
<path d="M355.94 1763.02C399.197 1767.82 436.943 1822.77 468.349 1848.4C484.198 1861.33 509.182 1880.3 518.118 1898.17" stroke="#444543" stroke-width="40" stroke-linecap="round"/>
<path d="M518.118 1782.33C470.861 1824.02 430.865 1869.58 386.831 1913.61" stroke="#444543" stroke-width="40" stroke-linecap="round"/>
<path d="M745.939 1527.47C782.539 1559.19 821.127 1589.9 859.635 1619.29C870.911 1627.89 881.087 1635.8 881.087 1651.04" stroke="#444543" stroke-width="40" stroke-linecap="round"/>
<path d="M892.672 1500.44C870.254 1516.14 859.842 1544.99 839.47 1562.23C828.132 1571.82 828.683 1589.34 818.447 1599.98C802.14 1616.94 785.493 1630.79 769.107 1647.18" stroke="#444543" stroke-width="40" stroke-linecap="round"/>
<path d="M834.75 1245.59C861.52 1255.63 893.217 1276.99 915.839 1294.93C931.975 1307.73 951.083 1316.42 966.037 1330.54C975.564 1339.54 990.989 1345.7 996.928 1357.57" stroke="#444543" stroke-width="40" stroke-linecap="round"/>
<path d="M996.929 1210.84C952.317 1247.45 917.828 1297.85 886.879 1345.99C877.918 1359.93 859.266 1372.84 854.058 1388.46" stroke="#444543" stroke-width="40" stroke-linecap="round"/>
<path d="M58.6138 1095C78.9887 1105.63 96.0171 1118.83 113.531 1133.61C142.862 1158.37 176.655 1177.78 207.277 1200.97C219.088 1209.92 229.948 1220.63 241.815 1229.29C250.585 1235.69 261.273 1236.97 266.914 1247.31C276.098 1264.15 304.257 1283.18 319.042 1295.58C347.566 1319.5 378.353 1349.67 401.633 1378.38C495.478 1494.12 588.216 1611.33 689.305 1722.04C735.085 1772.18 771.023 1826.72 819.305 1875C848.232 1903.93 885.733 1930.63 904.255 1967.67" stroke="#B80D0D" stroke-width="40" stroke-linecap="round"/>
<g filter="url(#filter0_di_39_29)">
<ellipse cx="1635" cy="1615.5" rx="358.5" ry="547" transform="rotate(-90 1635 1615.5)" fill="url(#paint0_radial_39_29)"/>
</g>
<path d="M1620.52 1494.66L1661.39 1506.64V1734.91L1620.52 1722.93V1494.66ZM1896 1601.75L1738.18 1730.68L1708.59 1731.39V1667.27C1708.59 1650.6 1706.24 1636.39 1701.55 1624.65C1696.73 1612.91 1689.57 1603.92 1680.06 1597.7C1670.43 1591.48 1658.33 1588.36 1643.77 1588.36C1622.28 1588.36 1605.43 1594.82 1593.22 1607.74C1580.89 1620.66 1574.73 1640.5 1574.73 1667.27V1734.91L1535.27 1722.93V1667.27C1535.27 1638.62 1540.03 1615.14 1549.54 1596.82C1558.93 1578.38 1571.85 1564.76 1588.29 1555.95C1604.61 1547.03 1623.11 1542.57 1643.77 1542.57C1662.44 1542.57 1679.65 1546.68 1695.38 1554.9C1711 1563 1723.56 1576.03 1733.07 1594C1742.59 1611.85 1747.34 1635.45 1747.34 1664.81V1665.86L1893.18 1546.8H1896V1601.75ZM1535.27 1494.66L1576.14 1506.64L1574.73 1686.3L1535.27 1674.32V1494.66Z" fill="url(#paint1_radial_39_29)"/>
<g filter="url(#filter1_di_39_29)">
<ellipse cx="1625" cy="1647.5" rx="358.5" ry="547" transform="rotate(-90 1625 1647.5)" fill="url(#paint2_radial_39_29)"/>
</g>
<path d="M1610.52 1526.66L1651.39 1538.64V1766.91L1610.52 1754.93V1526.66ZM1886 1633.75L1728.18 1762.68L1698.59 1763.39V1699.27C1698.59 1682.6 1696.24 1668.39 1691.55 1656.65C1686.73 1644.91 1679.57 1635.92 1670.06 1629.7C1660.43 1623.48 1648.33 1620.36 1633.77 1620.36C1612.28 1620.36 1595.43 1626.82 1583.22 1639.74C1570.89 1652.66 1564.73 1672.5 1564.73 1699.27V1766.91L1525.27 1754.93V1699.27C1525.27 1670.62 1530.03 1647.14 1539.54 1628.82C1548.93 1610.38 1561.85 1596.76 1578.29 1587.95C1594.61 1579.03 1613.11 1574.57 1633.77 1574.57C1652.44 1574.57 1669.65 1578.68 1685.38 1586.9C1701 1595 1713.56 1608.03 1723.07 1626C1732.59 1643.85 1737.34 1667.45 1737.34 1696.81V1697.86L1883.18 1578.8H1886V1633.75ZM1525.27 1526.66L1566.14 1538.64L1564.73 1718.3L1525.27 1706.32V1526.66Z" fill="url(#paint3_radial_39_29)"/>
<g filter="url(#filter2_di_39_29)">
<ellipse cx="1635" cy="1615.5" rx="358.5" ry="547" transform="rotate(-90 1635 1615.5)" fill="url(#paint4_radial_39_29)"/>
</g>
<path d="M1620.52 1494.66L1661.39 1506.64V1734.91L1620.52 1722.93V1494.66ZM1896 1601.75L1738.18 1730.68L1708.59 1731.39V1667.27C1708.59 1650.6 1706.24 1636.39 1701.55 1624.65C1696.73 1612.91 1689.57 1603.92 1680.06 1597.7C1670.43 1591.48 1658.33 1588.36 1643.77 1588.36C1622.28 1588.36 1605.43 1594.82 1593.22 1607.74C1580.89 1620.66 1574.73 1640.5 1574.73 1667.27V1734.91L1535.27 1722.93V1667.27C1535.27 1638.62 1540.03 1615.14 1549.54 1596.82C1558.93 1578.38 1571.85 1564.76 1588.29 1555.95C1604.61 1547.03 1623.11 1542.57 1643.77 1542.57C1662.44 1542.57 1679.65 1546.68 1695.38 1554.9C1711 1563 1723.56 1576.03 1733.07 1594C1742.59 1611.85 1747.34 1635.45 1747.34 1664.81V1665.86L1893.18 1546.8H1896V1601.75ZM1535.27 1494.66L1576.14 1506.64L1574.73 1686.3L1535.27 1674.32V1494.66Z" fill="url(#paint5_radial_39_29)"/>
<g filter="url(#filter3_di_39_29)">
<ellipse cx="1669.14" cy="1410.72" rx="358.5" ry="547" transform="rotate(-69 1669.14 1410.72)" fill="url(#paint6_radial_39_29)"/>
</g>
<path d="M1698.93 1292.71L1732.79 1318.54L1650.98 1531.65L1617.13 1505.82L1698.93 1292.71ZM1917.74 1491.41L1724.19 1555.22L1696.32 1545.28L1719.29 1485.42C1725.27 1469.86 1728.17 1455.75 1727.99 1443.1C1727.7 1430.42 1724.24 1419.46 1717.59 1410.24C1710.83 1400.98 1700.65 1393.74 1687.06 1388.53C1667 1380.82 1648.95 1380.82 1632.92 1388.5C1616.78 1396.14 1603.91 1412.46 1594.32 1437.45L1570.08 1500.59L1537.54 1475.27L1557.49 1423.31C1567.75 1396.56 1580.61 1376.34 1596.05 1362.65C1611.43 1348.8 1628.37 1340.72 1646.87 1338.39C1665.31 1335.9 1684.18 1338.37 1703.47 1345.77C1720.9 1352.46 1735.49 1362.46 1747.23 1375.78C1758.91 1388.94 1765.97 1405.61 1768.41 1425.79C1770.89 1445.86 1766.87 1469.6 1756.35 1497.01L1755.97 1497.99L1934.8 1439.1L1937.43 1440.11L1917.74 1491.41ZM1619.35 1262.16L1653.2 1287.99L1587.5 1455.21L1554.96 1429.89L1619.35 1262.16Z" fill="url(#paint7_radial_39_29)"/>
<g filter="url(#filter4_di_39_29)">
<ellipse cx="1276.5" cy="1427" rx="358.5" ry="547" fill="url(#paint8_radial_39_29)"/>
</g>
<path d="M1397.34 1412.52L1385.36 1453.39H1157.09L1169.07 1412.52H1397.34ZM1290.25 1688L1161.32 1530.18L1160.61 1500.59H1224.73C1241.4 1500.59 1255.61 1498.24 1267.35 1493.55C1279.09 1488.73 1288.08 1481.57 1294.3 1472.06C1300.52 1462.43 1303.64 1450.33 1303.64 1435.77C1303.64 1414.28 1297.18 1397.43 1284.26 1385.22C1271.34 1372.89 1251.5 1366.73 1224.73 1366.73H1157.09L1169.07 1327.27H1224.73C1253.38 1327.27 1276.86 1332.03 1295.18 1341.54C1313.62 1350.93 1327.24 1363.85 1336.05 1380.29C1344.97 1396.61 1349.43 1415.11 1349.43 1435.77C1349.43 1454.44 1345.32 1471.65 1337.1 1487.38C1329 1503 1315.97 1515.56 1298 1525.07C1280.15 1534.59 1256.55 1539.34 1227.19 1539.34H1226.14L1345.2 1685.18V1688H1290.25ZM1397.34 1327.27L1385.36 1368.14L1205.7 1366.73L1217.68 1327.27H1397.34Z" fill="url(#paint9_radial_39_29)"/>
<defs>
<filter id="filter0_di_39_29" x="1084" y="1257" width="1102" height="725" filterUnits="userSpaceOnUse" color-interpolation-filters="sRGB">
<feFlood flood-opacity="0" result="BackgroundImageFix"/>
<feColorMatrix in="SourceAlpha" type="matrix" values="0 0 0 0 0 0 0 0 0 0 0 0 0 0 0 0 0 0 127 0" result="hardAlpha"/>
<feOffset dy="4"/>
<feGaussianBlur stdDeviation="2"/>
<feComposite in2="hardAlpha" operator="out"/>
<feColorMatrix type="matrix" values="0 0 0 0 0 0 0 0 0 0 0 0 0 0 0 0 0 0 0.25 0"/>
<feBlend mode="normal" in2="BackgroundImageFix" result="effect1_dropShadow_39_29"/>
<feBlend mode="normal" in="SourceGraphic" in2="effect1_dropShadow_39_29" result="shape"/>
<feColorMatrix in="SourceAlpha" type="matrix" values="0 0 0 0 0 0 0 0 0 0 0 0 0 0 0 0 0 0 127 0" result="hardAlpha"/>
<feOffset dy="4"/>
<feGaussianBlur stdDeviation="2"/>
<feComposite in2="hardAlpha" operator="arithmetic" k2="-1" k3="1"/>
<feColorMatrix type="matrix" values="0 0 0 0 0 0 0 0 0 0 0 0 0 0 0 0 0 0 0.25 0"/>
<feBlend mode="normal" in2="shape" result="effect2_innerShadow_39_29"/>
</filter>
<filter id="filter1_di_39_29" x="1074" y="1289" width="1102" height="725" filterUnits="userSpaceOnUse" color-interpolation-filters="sRGB">
<feFlood flood-opacity="0" result="BackgroundImageFix"/>
<feColorMatrix in="SourceAlpha" type="matrix" values="0 0 0 0 0 0 0 0 0 0 0 0 0 0 0 0 0 0 127 0" result="hardAlpha"/>
<feOffset dy="4"/>
<feGaussianBlur stdDeviation="2"/>
<feComposite in2="hardAlpha" operator="out"/>
<feColorMatrix type="matrix" values="0 0 0 0 0 0 0 0 0 0 0 0 0 0 0 0 0 0 0.25 0"/>
<feBlend mode="normal" in2="BackgroundImageFix" result="effect1_dropShadow_39_29"/>
<feBlend mode="normal" in="SourceGraphic" in2="effect1_dropShadow_39_29" result="shape"/>
<feColorMatrix in="SourceAlpha" type="matrix" values="0 0 0 0 0 0 0 0 0 0 0 0 0 0 0 0 0 0 127 0" result="hardAlpha"/>
<feOffset dy="4"/>
<feGaussianBlur stdDeviation="2"/>
<feComposite in2="hardAlpha" operator="arithmetic" k2="-1" k3="1"/>
<feColorMatrix type="matrix" values="0 0 0 0 0 0 0 0 0 0 0 0 0 0 0 0 0 0 0.25 0"/>
<feBlend mode="normal" in2="shape" result="effect2_innerShadow_39_29"/>
</filter>
<filter id="filter2_di_39_29" x="1084" y="1257" width="1102" height="725" filterUnits="userSpaceOnUse" color-interpolation-filters="sRGB">
<feFlood flood-opacity="0" result="BackgroundImageFix"/>
<feColorMatrix in="SourceAlpha" type="matrix" values="0 0 0 0 0 0 0 0 0 0 0 0 0 0 0 0 0 0 127 0" result="hardAlpha"/>
<feOffset dy="4"/>
<feGaussianBlur stdDeviation="2"/>
<feComposite in2="hardAlpha" operator="out"/>
<feColorMatrix type="matrix" values="0 0 0 0 0 0 0 0 0 0 0 0 0 0 0 0 0 0 0.25 0"/>
<feBlend mode="normal" in2="BackgroundImageFix" result="effect1_dropShadow_39_29"/>
<feBlend mode="normal" in="SourceGraphic" in2="effect1_dropShadow_39_29" result="shape"/>
<feColorMatrix in="SourceAlpha" type="matrix" values="0 0 0 0 0 0 0 0 0 0 0 0 0 0 0 0 0 0 127 0" result="hardAlpha"/>
<feOffset dy="4"/>
<feGaussianBlur stdDeviation="2"/>
<feComposite in2="hardAlpha" operator="arithmetic" k2="-1" k3="1"/>
<feColorMatrix type="matrix" values="0 0 0 0 0 0 0 0 0 0 0 0 0 0 0 0 0 0 0.25 0"/>
<feBlend mode="normal" in2="shape" result="effect2_innerShadow_39_29"/>
</filter>
<filter id="filter3_di_39_29" x="1138.44" y="1022.78" width="1061.41" height="783.865" filterUnits="userSpaceOnUse" color-interpolation-filters="sRGB">
<feFlood flood-opacity="0" result="BackgroundImageFix"/>
<feColorMatrix in="SourceAlpha" type="matrix" values="0 0 0 0 0 0 0 0 0 0 0 0 0 0 0 0 0 0 127 0" result="hardAlpha"/>
<feOffset dy="4"/>
<feGaussianBlur stdDeviation="2"/>
<feComposite in2="hardAlpha" operator="out"/>
<feColorMatrix type="matrix" values="0 0 0 0 0 0 0 0 0 0 0 0 0 0 0 0 0 0 0.25 0"/>
<feBlend mode="normal" in2="BackgroundImageFix" result="effect1_dropShadow_39_29"/>
<feBlend mode="normal" in="SourceGraphic" in2="effect1_dropShadow_39_29" result="shape"/>
<feColorMatrix in="SourceAlpha" type="matrix" values="0 0 0 0 0 0 0 0 0 0 0 0 0 0 0 0 0 0 127 0" result="hardAlpha"/>
<feOffset dy="4"/>
<feGaussianBlur stdDeviation="2"/>
<feComposite in2="hardAlpha" operator="arithmetic" k2="-1" k3="1"/>
<feColorMatrix type="matrix" values="0 0 0 0 0 0 0 0 0 0 0 0 0 0 0 0 0 0 0.25 0"/>
<feBlend mode="normal" in2="shape" result="effect2_innerShadow_39_29"/>
</filter>
<filter id="filter4_di_39_29" x="914" y="880" width="725" height="1102" filterUnits="userSpaceOnUse" color-interpolation-filters="sRGB">
<feFlood flood-opacity="0" result="BackgroundImageFix"/>
<feColorMatrix in="SourceAlpha" type="matrix" values="0 0 0 0 0 0 0 0 0 0 0 0 0 0 0 0 0 0 127 0" result="hardAlpha"/>
<feOffset dy="4"/>
<feGaussianBlur stdDeviation="2"/>
<feComposite in2="hardAlpha" operator="out"/>
<feColorMatrix type="matrix" values="0 0 0 0 0 0 0 0 0 0 0 0 0 0 0 0 0 0 0.25 0"/>
<feBlend mode="normal" in2="BackgroundImageFix" result="effect1_dropShadow_39_29"/>
<feBlend mode="normal" in="SourceGraphic" in2="effect1_dropShadow_39_29" result="shape"/>
<feColorMatrix in="SourceAlpha" type="matrix" values="0 0 0 0 0 0 0 0 0 0 0 0 0 0 0 0 0 0 127 0" result="hardAlpha"/>
<feOffset dy="4"/>
<feGaussianBlur stdDeviation="2"/>
<feComposite in2="hardAlpha" operator="arithmetic" k2="-1" k3="1"/>
<feColorMatrix type="matrix" values="0 0 0 0 0 0 0 0 0 0 0 0 0 0 0 0 0 0 0.25 0"/>
<feBlend mode="normal" in2="shape" result="effect2_innerShadow_39_29"/>
</filter>
<radialGradient id="paint0_radial_39_29" cx="0" cy="0" r="1" gradientUnits="userSpaceOnUse" gradientTransform="translate(1635 1615.5) rotate(90) scale(547 358.5)">
<stop stop-color="#FAFF00"/>
<stop offset="0.865" stop-color="#EFF400"/>
<stop offset="0.93" stop-color="#F2F700"/>
<stop offset="1" stop-color="#969900"/>
</radialGradient>
<radialGradient id="paint1_radial_39_29" cx="0" cy="0" r="1" gradientUnits="userSpaceOnUse" gradientTransform="translate(1716 1615) scale(300 134)">
<stop stop-color="#FAFF00"/>
<stop offset="0.0001" stop-color="#F0F500"/>
<stop offset="0.055" stop-color="#E3E800"/>
<stop offset="0.9999" stop-color="#DCE100"/>
<stop offset="1" stop-color="#969900"/>
</radialGradient>
<radialGradient id="paint2_radial_39_29" cx="0" cy="0" r="1" gradientUnits="userSpaceOnUse" gradientTransform="translate(1625 1647.5) rotate(90) scale(547 358.5)">
<stop stop-color="#FAFF00"/>
<stop offset="0.865" stop-color="#EFF400"/>
<stop offset="0.93" stop-color="#F2F700"/>
<stop offset="1" stop-color="#969900"/>
</radialGradient>
<radialGradient id="paint3_radial_39_29" cx="0" cy="0" r="1" gradientUnits="userSpaceOnUse" gradientTransform="translate(1706 1647) scale(300 134)">
<stop stop-color="#FAFF00"/>
<stop offset="0.0001" stop-color="#F0F500"/>
<stop offset="0.055" stop-color="#E3E800"/>
<stop offset="0.9999" stop-color="#DCE100"/>
<stop offset="1" stop-color="#969900"/>
</radialGradient>
<radialGradient id="paint4_radial_39_29" cx="0" cy="0" r="1" gradientUnits="userSpaceOnUse" gradientTransform="translate(1635 1615.5) rotate(90) scale(547 358.5)">
<stop stop-color="#FAFF00"/>
<stop offset="0.865" stop-color="#EFF400"/>
<stop offset="0.93" stop-color="#F2F700"/>
<stop offset="1" stop-color="#969900"/>
</radialGradient>
<radialGradient id="paint5_radial_39_29" cx="0" cy="0" r="1" gradientUnits="userSpaceOnUse" gradientTransform="translate(1716 1615) scale(300 134)">
<stop stop-color="#FAFF00"/>
<stop offset="0.0001" stop-color="#F0F500"/>
<stop offset="0.055" stop-color="#E3E800"/>
<stop offset="0.9999" stop-color="#DCE100"/>
<stop offset="1" stop-color="#969900"/>
</radialGradient>
<radialGradient id="paint6_radial_39_29" cx="0" cy="0" r="1" gradientUnits="userSpaceOnUse" gradientTransform="translate(1669.14 1410.72) rotate(90) scale(547 358.5)">
<stop stop-color="#FAFF00"/>
<stop offset="0.865" stop-color="#EFF400"/>
<stop offset="0.93" stop-color="#F2F700"/>
<stop offset="1" stop-color="#969900"/>
</radialGradient>
<radialGradient id="paint7_radial_39_29" cx="0" cy="0" r="1" gradientUnits="userSpaceOnUse" gradientTransform="translate(1744.94 1439.28) rotate(21) scale(300 134)">
<stop stop-color="#FAFF00"/>
<stop offset="0.0001" stop-color="#F0F500"/>
<stop offset="0.055" stop-color="#E3E800"/>
<stop offset="0.9999" stop-color="#DCE100"/>
<stop offset="1" stop-color="#969900"/>
</radialGradient>
<radialGradient id="paint8_radial_39_29" cx="0" cy="0" r="1" gradientUnits="userSpaceOnUse" gradientTransform="translate(1276.5 1427) rotate(90) scale(547 358.5)">
<stop stop-color="#FAFF00"/>
<stop offset="0.865" stop-color="#EFF400"/>
<stop offset="0.93" stop-color="#F2F700"/>
<stop offset="1" stop-color="#969900"/>
</radialGradient>
<radialGradient id="paint9_radial_39_29" cx="0" cy="0" r="1" gradientUnits="userSpaceOnUse" gradientTransform="translate(1277 1508) rotate(90) scale(300 134)">
<stop stop-color="#FAFF00"/>
<stop offset="0.0001" stop-color="#F0F500"/>
<stop offset="0.055" stop-color="#E3E800"/>
<stop offset="0.9999" stop-color="#DCE100"/>
<stop offset="1" stop-color="#969900"/>
</radialGradient>
</defs>
</svg>
