<svg width="36" height="36" viewBox="0 0 1257 802" fill="none" xmlns="http://www.w3.org/2000/svg">
<path d="M80.7192 80.4255C85.2065 109.593 106.41 137.727 117.188 165.161C127.593 191.648 133.982 219.404 142.501 246.465C149.467 268.59 154.679 288.893 159.663 311.679C165.709 339.317 160.79 368.905 164.811 397.058C174.145 462.393 165.67 536.284 165.67 601.711C165.67 616.626 170.134 643.417 163.739 657.487C152.412 682.407 185.569 652.718 193.557 648.048C238.4 621.832 281.575 590.929 309.399 546.794C335.879 504.791 354.261 459.102 367.319 410.788C370.474 399.114 371.683 381.395 377.831 372.174C384.887 361.59 381.83 397.405 385.768 409.501C390.449 423.877 397.134 437.338 401.214 451.976C411.618 489.31 423.957 522.884 440.042 557.735C456.23 592.81 459.134 618.626 459.134 657.701C459.134 671.864 454.243 694.571 476.296 683.229C509.818 665.989 541.406 627.436 563.391 597.206C591.419 558.668 615.878 522.452 626.89 475.573C636.959 432.706 640.619 389.136 640.619 345.144C640.619 318.151 647.647 281.137 636.758 256.333C621.646 221.911 611.741 183.963 592.352 151.646C585.046 139.47 574.176 127.982 568.111 115.178C565.834 110.371 559.53 89.5188 559.53 105.31C559.53 126.642 540.223 143.659 540.223 163.66C540.223 175.899 554.517 199.121 568.111 200.128C587.064 201.532 595.996 193.495 612.088 188.544C631.911 182.445 666.254 167.091 671.51 146.069" stroke="#B80D0D" stroke-width="160" stroke-linecap="round"/>
<path d="M1096.26 173.099C1066.61 171.354 1037.06 167.744 1007.45 165.376C979.453 163.136 951.829 154.223 923.787 153.792C906.135 153.52 888.456 153.792 870.8 153.792C857.599 153.792 846.601 160.294 833.688 161.729C773.22 168.448 730.159 249.087 705.19 295.805C684.084 335.294 664.502 389.792 663.787 434.814C662.793 497.434 693.901 567.018 745.734 604.715C796.268 641.466 870.937 644.187 930.651 644.187C979.234 644.187 1015.61 624.497 1037.48 580.259C1052.89 549.096 1072.72 496.803 1040.06 468.494C1017.76 449.169 983.115 431.811 953.176 431.811C940.342 431.811 928.94 431.613 916.493 434.814C897.725 439.64 888.324 448.622 913.061 430.953C946.121 407.338 978.419 383.823 1012.17 361.019C1028.54 349.955 1046.11 348.75 1063.65 340.854C1087.69 330.037 1119.03 316.87 1137.02 341.712C1192.68 418.581 1173.49 539.356 1173.49 628.741C1173.49 659.632 1173.49 690.523 1173.49 721.414" stroke="#21B80D" stroke-width="160" stroke-linecap="round"/>
</svg>
